<?xml version="1.0" encoding="utf-8"?>
<!-- Generator: Adobe Illustrator 24.1.0, SVG Export Plug-In . SVG Version: 6.00 Build 0)  -->
<svg version="1.1" id="Layer_1" xmlns="http://www.w3.org/2000/svg" xmlns:xlink="http://www.w3.org/1999/xlink" x="0px" y="0px"
	 viewBox="0 0 385.24 127.33" style="enable-background:new 0 0 385.24 127.33;" xml:space="preserve">
<style type="text/css">
	.st0{fill:#010101;}
	.st1{fill:#FFD528;}
</style>
<g>
	<g>
		<path class="st0" d="M146.49,38.22l-20.7,2.76l-0.37,0.05l1.27-6.78l21.09-2.84l2.48-0.33l2.02-0.27l0.61-3.22l0.39-2.09l1.67-8.9
			l0.09-0.49l-3.06,0.42l-2.51,0.35l-37.02,5.11l-3.98,20.91c1.95,2.33,3.36,4.9,4.24,7.4c0,0.01,0.01,0.02,0.01,0.03
			c0.28,0.79,0.49,1.56,0.65,2.29c0.03,0.16,0.05,0.31,0.06,0.47c1.84,8.6,0.13,17.4-4.85,25.7l9.89-1.23l4.18-21.94l21.06-2.73
			l2.47-0.32l1.47-0.19l2.67-14.18l0.09-0.49l-1.46,0.19L146.49,38.22z"/>
		<polygon class="st0" points="170.06,29.89 163.54,30.77 161.8,31.01 159.04,31.38 158.68,33.28 153.76,59.3 153.25,62.01 
			151.05,73.6 151.42,73.55 166.2,71.7 169.63,53.55 171.02,46.17 173.18,34.72 174.1,29.83 174.2,29.34 172.54,29.56 		"/>
		<path class="st0" d="M177.41,15.96c-0.03-1.18-0.34-2.25-0.86-3.17c-1.27-2.23-3.83-3.54-6.98-3.1c-0.71,0.1-1.45,0.31-2.18,0.6
			c-1.38,0.55-2.74,1.42-3.9,2.58c-1.96,1.95-3.35,4.69-3.27,8.03c0.02,0.91,0.22,1.75,0.55,2.52c0.18,0.43,0.4,0.83,0.66,1.2
			c0.37,0.51,0.81,0.96,1.32,1.34c0.46,0.34,0.97,0.63,1.53,0.85c1.1,0.42,2.38,0.57,3.77,0.38c0.87-0.12,1.78-0.39,2.68-0.8
			c1.98-0.9,3.87-2.48,5.13-4.6c0.55-0.93,1-1.95,1.26-3.08C177.33,17.83,177.44,16.93,177.41,15.96z"/>
		<path class="st0" d="M202.57,21.5c0.67-0.89,1.74-1.62,3.33-1.84c0.09-0.01,0.17-0.01,0.26-0.02c1.24-0.13,2.33,0.06,3.05,0.6
			l1.62-3.68l2.82-6.43l0.16-0.36l0.12-0.28c-0.03-0.02-0.07-0.03-0.1-0.04c-0.74-0.33-1.52-0.59-2.33-0.77
			c-2.62-0.6-5.5-0.5-7.98-0.16c-9.26,1.29-15.16,8.55-16.9,16.86l-0.45,2.21l-2.53,0.34l-2.35,0.32l-0.62,0.08l-1.16,0.16
			L179.22,30l-2.33,12.21l0.37-0.05l2.05-0.27l1.74-0.23l2.58-0.34l-0.09,0.49l-5.28,28.26l0.37-0.05l14.79-1.86l5.37-28.84
			l0.43-0.06l2.77-0.37l5.06-0.67l2.53-13.33l0.09-0.49l-5.36,0.72l-2.47,0.33l-0.13,0.02l-0.38,0.05l0.45-2.22
			C201.89,22.71,202.15,22.07,202.57,21.5z"/>
		<path class="st0" d="M218.8,36.81l-0.09,0.49l-1.84,10.01l-0.98,5.35c-0.22,1.24-0.27,2.71-0.26,3.32
			c0.05,1.94,0.55,3.53,1.4,4.81c1.52,2.27,4.2,3.55,7.65,3.94c1.8,0.2,3.81,0.17,5.98-0.09c0.07-0.01,0.14-0.01,0.22-0.02
			c2.78-0.35,5.62-1.32,7.2-2.64l-0.15-6.06l-0.14-5.82l-0.01-0.59c-0.22,0.18-1.12,0.52-1.84,0.66c-0.09,0.02-0.17,0.03-0.25,0.04
			c-1.57,0.2-2.63-0.17-3.24-0.93c-0.4-0.5-0.61-1.16-0.63-1.96c-0.01-0.35,0.06-1.22,0.2-2.02l1.94-10.49l2.18-0.29l2.56-0.34
			l3.51-0.46l2.16-11.49l0.37-1.94l0.09-0.49l-1.89,0.26l-5.99,0.81l-0.37,0.05l2.07-11.27l0.09-0.49l-12.11,1.67l-2.14,0.29
			l-0.9,0.12l-0.81,4.42l-1.35,7.31l-1.25,0.17l-5.49,0.74l-2.62,13.83l0.37-0.05l5.72-0.76L218.8,36.81z"/>
		<path class="st0" d="M275.63,44.76c-1.82,1.55-5.59,2.82-8.79,3.24c-4.4,0.57-6.94-1.69-7.95-3.12c-0.34-0.48-0.51-0.87-0.51-1.03
			l0-0.09l19.05-2.48l2.22-0.29l6-0.78c0.38-1.63,0.81-5.03,0.74-7.92c-0.1-4.07-1.08-7.36-2.69-9.93
			c-0.14-0.22-0.29-0.44-0.44-0.65c-0.51-0.73-1.07-1.41-1.69-2.01c-3.65-3.56-9-4.85-14.67-4.07c-5.5,0.75-10.32,3.14-14.14,6.56
			c-0.73,0.65-1.43,1.35-2.08,2.08c-4.36,4.82-7.01,11.12-7.31,17.66c-0.03,0.63-0.04,1.25-0.03,1.88c0.03,1.24,0.16,2.4,0.36,3.5
			c0.12,0.64,0.26,1.26,0.44,1.85c0.46,1.54,1.09,2.92,1.9,4.15c0.02,0.03,0.04,0.06,0.06,0.08c2.89,4.31,7.89,6.65,14.21,6.94
			c1.8,0.08,3.71,0.01,5.71-0.24c0.03,0,0.06-0.01,0.09-0.01c4.86-0.63,10.34-2.46,14.38-5.67l-4.64-9.16L275.63,44.76z
			 M266.6,27.65c3.34-0.45,5.09,1.06,5.85,2.43c0.33,0.6,0.48,1.17,0.49,1.54l0.01,0.26L260,33.59l-0.43,0.06
			C260.03,31.75,262.56,28.18,266.6,27.65z"/>
		<path class="st0" d="M322.64,43.79l-0.75-1.5l-1.39-2.77l-0.24-0.47c-1.82,1.56-5.59,2.85-8.79,3.26
			c-4.39,0.57-6.93-1.7-7.94-3.15c-0.35-0.49-0.52-0.89-0.52-1.05l0-0.09l21.18-2.77l2.46-0.32l2.82-0.37l0.81-0.11
			c0.06-0.24,0.11-0.52,0.17-0.83c0.33-1.81,0.63-4.67,0.57-7.16c-0.07-2.92-0.59-5.44-1.45-7.59c-0.31-0.76-0.66-1.47-1.05-2.14
			c-0.24-0.41-0.49-0.8-0.75-1.17c-3.58-4.97-9.69-6.85-16.23-5.96c-7.11,0.97-13.07,4.7-17.22,9.87c-0.47,0.58-0.91,1.18-1.32,1.8
			c-3.32,4.87-5.15,10.77-5.01,16.76c0.09,3.84,1.05,7.02,2.7,9.56c0.01,0.01,0.01,0.02,0.02,0.03c0.48,0.73,1,1.41,1.59,2.03
			c3.44,3.61,8.74,5.34,15.2,5.1c0.65-0.02,1.32-0.07,2-0.14c0.39-0.04,0.78-0.07,1.18-0.12c1.8-0.23,3.69-0.63,5.56-1.21
			c1.73-0.53,3.44-1.21,5.05-2.05c0.94-0.49,1.84-1.03,2.7-1.62c0.4-0.27,0.79-0.56,1.16-0.85l-0.74-1.47L322.64,43.79z
			 M311.24,21.76c3.33-0.45,5.08,1.07,5.85,2.45c0.34,0.61,0.49,1.19,0.5,1.56l0.01,0.26l-5.42,0.72l-0.04,0.01l-7.49,0.99
			l-0.43,0.06C304.67,25.9,307.2,22.3,311.24,21.76z"/>
		<path class="st0" d="M379.51,11.6c-0.04-1.87-0.5-3.55-1.33-4.97c-1.13-1.94-2.97-3.4-5.43-4.15c-1.93-0.59-4.24-0.76-6.89-0.39
			c-5.82,0.8-9.39,4.09-12.19,7.2c-0.16,0.17-0.31,0.34-0.46,0.51l0.88-4.55l0.1-0.49l-7.31,1l-7.84,1.07l-1.26,6.92l-0.65,3.55
			l-2.08,11.43l-2.52,13.87L332,45.49l-0.96,5.29l0.36-0.05l1.38-0.18l3.72-0.47l9.69-1.23l4.93-27.27
			c1.56-1.72,3.79-3.81,7.08-4.25c1.88-0.25,3.77,0.14,4.58,1.67c0.24,0.46,0.39,1.01,0.4,1.68c0.03,1.07-0.28,2.54-0.43,3.36
			l-2.95,16.38l-1.23,6.85l0.36-0.05l14.79-1.89l5.45-30.2C379.32,14.32,379.53,12.32,379.51,11.6z"/>
		<path class="st0" d="M224.36,76.23c2.06-0.26,3.91,0.42,4.89,2.25l2.39-1.22c-0.04-0.08-0.09-0.17-0.14-0.25
			c-0.47-0.82-1.11-1.52-1.9-2.05c-1.3-0.86-3.03-1.28-5.17-1.01c-1.09,0.14-2.15,0.47-3.15,0.96c-3.59,1.75-6.3,5.56-6.17,10.3
			c0.04,1.51,0.47,2.78,1.17,3.8c1.41,2.03,3.96,3.02,6.99,2.64c1.13-0.14,2.34-0.52,3.51-1.18c0.97-0.55,1.9-1.29,2.71-2.27
			c0.05-0.07,0.11-0.12,0.16-0.19l-1.97-1.12c-0.08,0.1-0.17,0.19-0.26,0.28c-1.15,1.23-2.62,2.02-4.06,2.21
			c-2.11,0.27-3.76-0.4-4.71-1.72c-0.56-0.77-0.88-1.77-0.91-2.93C217.61,80.19,220.83,76.68,224.36,76.23z"/>
		<path class="st0" d="M247.89,71.72l-0.1-0.46l-3.18,0.4l-7.32,13.36l-2.67,4.88l0.56-0.07l2.37-0.3l0.51-0.95l1.52-2.82l8.31-1.06
			l0.1,0.46l0.61,2.96l0.18-0.02l1.51-0.19l0.97-0.12l-0.65-3.07L247.89,71.72z M241.32,83.28l-0.55,0.07l5.14-9.56l0.14,0.7
			l1.56,7.98L241.32,83.28z"/>
		<polygon class="st0" points="272.92,69.07 272.21,72.83 270.55,81.58 270.54,81.64 266.96,74.94 264.57,70.47 264.13,69.64 
			263.89,69.19 261.27,69.53 261.08,70.55 258.7,83.25 258.62,83.67 258.02,86.9 258.38,86.85 259.42,86.72 260.56,86.58 
			262.12,78.22 263.17,72.64 263.43,73.14 264.94,75.97 269.94,85.38 269.98,85.37 270.2,85.35 272.4,85.06 272.69,83.55 
			274.89,71.77 275.55,68.25 275.57,68.18 275.66,67.69 273.11,68.02 		"/>
		<polygon class="st0" points="296.13,65.57 293.66,78.65 293.65,78.71 289.5,70.94 287.42,67.07 287.23,66.71 287,66.27 
			284.38,66.6 284.18,67.64 284.06,68.28 282.55,76.34 281.12,83.97 281.38,83.94 281.49,83.92 283.66,83.64 285.45,74.11 
			286.28,69.71 286.54,70.21 287.69,72.36 293.04,82.45 293.08,82.44 294.51,82.26 295.51,82.13 296.76,75.47 298.55,65.91 
			298.67,65.25 298.76,64.77 296.22,65.09 		"/>
		<path class="st0" d="M316.09,65.33l-0.32-1.5l-0.16-0.74l-0.1-0.46l-3.18,0.4l-0.88,1.6l-0.91,1.67l-5.21,9.51l-2.99,5.45
			l0.56-0.07l1.46-0.19l0.91-0.12l2.04-3.77l8.31-1.06l0.1,0.46l0.61,2.95l0.18-0.02l1.52-0.19l0.97-0.12l-0.65-3.07L316.09,65.33z
			 M309.04,74.64l-0.55,0.07l4.72-8.78l0.41-0.77l0.13,0.67l0.01,0.03l1.56,7.98L309.04,74.64z"/>
		<path class="st0" d="M341.03,63.32c-0.02-0.58-0.16-1.1-0.39-1.55c-0.06-0.11-0.11-0.22-0.18-0.32c-0.41-0.62-1.04-1.08-1.82-1.33
			c-0.62-0.2-1.33-0.27-2.12-0.17l-6.83,0.87l-0.56,0.07l-0.38,2.04l-2.19,11.67l-0.68,3.65l0.37-0.05l1.04-0.13l3.87-0.49
			l2.98-0.38c2.78-0.35,4.44-1.77,5.2-3.41c0.35-0.76,0.5-1.57,0.48-2.35c0-0.04-0.01-0.09-0.02-0.13
			c-0.01-0.18-0.03-0.37-0.07-0.54c-0.07-0.31-0.18-0.61-0.32-0.89c-0.3-0.58-0.76-1.05-1.33-1.33c-0.25-0.13-0.53-0.22-0.82-0.26
			C339.34,67.83,341.09,65.67,341.03,63.32z M336.42,73.77c-0.52,0.59-1.3,1.03-2.31,1.19c-0.05,0.01-0.1,0.03-0.16,0.03l-4.77,0.61
			l-0.37,0.05l1.02-5.41l4.83-0.62c1.19-0.15,2.02,0.3,2.37,1.09c0.11,0.26,0.18,0.55,0.19,0.87
			C337.25,72.35,336.98,73.14,336.42,73.77z M335.35,67.29l-4.69,0.6l-0.37,0.05l0.95-5.07l4.68-0.6c1.01-0.13,1.88,0.32,2.23,1.09
			c0.1,0.21,0.16,0.45,0.17,0.71C338.36,65.41,337.61,67.01,335.35,67.29z"/>
		<polygon class="st0" points="351.55,58.04 350.17,58.22 349.36,62.51 346.92,75.57 347.28,75.53 347.79,75.46 349.46,75.25 
			349.94,72.66 350.78,68.2 352,61.71 352.62,58.38 352.68,58.07 352.71,57.89 352.71,57.89 		"/>
		<path class="st0" d="M369.49,56.19c-1.08-0.31-2.32-0.4-3.61-0.23c-1.2,0.15-2.26,0.54-3.14,1.09c-0.63,0.39-1.17,0.86-1.61,1.38
			c-0.85,1.01-1.31,2.21-1.27,3.4c0.02,0.65,0.19,1.18,0.47,1.63c0.04,0.07,0.09,0.14,0.14,0.2c0.94,1.24,2.79,1.72,4.47,2.14
			c1.56,0.42,3.01,0.8,3.39,1.78c0.06,0.15,0.09,0.31,0.1,0.49c0.04,1.26-0.91,2.91-3.33,3.22c-2.36,0.3-4.48-0.47-5.69-1.94
			l-0.25,0.31l-1.38,1.75c0.1,0.12,0.23,0.24,0.34,0.35c0.17,0.17,0.35,0.32,0.55,0.47c1.47,1.08,3.75,1.66,6.28,1.33
			c4.07-0.52,6.25-3.46,6.17-6.27c-0.02-0.56-0.15-1.04-0.36-1.45c-0.82-1.6-2.93-2.18-4.81-2.64c-1.31-0.35-2.48-0.67-3.05-1.29
			c-0.21-0.23-0.35-0.51-0.35-0.85c-0.04-1.29,1.28-2.63,3.06-2.85c1.83-0.23,3.83,0.25,5.02,1.62l1.55-1.91l0.08-0.1
			C371.58,57.07,370.62,56.52,369.49,56.19z"/>
	</g>
	<path class="st1" d="M110.38,53.2c0.02,0.01,0.04,0.02,0.05,0.03c-0.13-0.59-0.31-1.24-0.55-1.92c0,0,0,0,0-0.01h0
		c-0.48-1.37-1.2-2.88-2.19-4.39c-3.62-5.57-10.84-11.13-23.02-9.63c7.15-5.86,10.62-13.94,11.9-17.83
		c1.07-3.23,1.36-6.96,0.63-10.28c-0.53-2.43-1.6-3.39-4.13-4.06c-2.64-0.7-6.02,0.37-8.6,0.93c-9.63,2.08-19.11,4.94-28.52,7.82
		c-6.52,2-13.03,4.06-19.51,6.22c-1.14,0.38-2,2.62-2.3,3.54c-0.61,1.86-0.87,2.87-0.7,4.82c0.19,2.12,2.15,4.35,5.26,3.31
		c13.74-4.58,35.87-11.59,45.96-13.54c-1.99,7.07-10.72,16.75-26.17,22.37c-1.19,0.43-1.98,2.48-2.3,3.54
		c-0.49,1.65-0.03,5.07,0.57,6.47c0.19,0.45,0.56,1.21,1,1.81c0.49,0.67,2.29-0.03,2.29-0.03s3.95-1.18,5.28-1.63
		c3.57-1.21,29.23-7.39,32.25,4.05c3.89,7.86-9.41,25.62-25.73,37.46c-0.03,0-0.06,0.01-0.09,0.01
		c-14.28,10.26-31.46,16.61-37.41,18.41c-6.68,2.02-21.53,6.25-21.56-3.32c-0.06-14.65,8.6-18.85,2.2-17.31
		c-0.87,0.21-2.2,0.45-3.42,1.03c-8.23,9.76-6.83,18.44-1.67,27.68c5.82,10.42,25.93,8,47.5-2.88
		c16.09-8.12,30.11-18.97,38.64-26.75c3.41-3.11,6.33-6.41,8.67-9.87C110.2,71.19,112.49,62.29,110.38,53.2z"/>
</g>
</svg>
